<svg id="Layer_1" xmlns="http://www.w3.org/2000/svg" viewBox="30 20 420 320">
<path d="M392.72,100.62c-39.55,60.55-84.96,130.05-120.33,184.21-9.06,13.87-25.82,22.42-43.94,22.42h-32.18c37.07-56.76,89.94-137.71,134.94-206.63h61.5Z" fill="#FED130"/>
<path d="M305.49,112.16c-10.01,15.33-20.33,31.13-30.74,47.05-21.92-33.51-60.32-92.01-78.47-119.77h32.07c18.19,0,35.02,8.55,44.15,22.45,10.97,16.7,25.29,38.55,32.99,50.26Z" fill="#FED130"/>
<path d="M435.75,34.72c-10.14,15.54-21.48,32.91-33.53,51.33h-61.48c12.06-18.48,23.39-35.83,33.51-51.33h61.5Z" fill="#111e4c"/>
<path d="M208.84,260.17c-11.02,16.84-21.39,32.74-30.74,47.07h-97.1s-.02.02-.02.02h-23.46c-16.9,0-27.49-16.16-19.07-29.11,45.95-70.76,104.45-162.01,147.35-227.78,8.79,13.41,19.72,30.08,30.81,46.97-31.93,49.01-70.53,109.35-105.06,162.84,89.62.02,17.29-.02,97.3,0Z" fill="#111e4c"/>
</svg>